<svg width="16" height="16" viewBox="0 0 16 16" fill="none" xmlns="http://www.w3.org/2000/svg">
<path d="M10.5 4H1.5C0.672 4 0 4.672 0 5.5V14.5C0 15.328 0.672 16 1.5 16H10.5C11.328 16 12 15.328 12 14.5V5.5C12 4.672 11.328 4 10.5 4ZM9.5 11H7V13.5C7 14.052 6.552 14.5 6 14.5C5.448 14.5 5 14.052 5 13.5V11H2.5C1.948 11 1.5 10.552 1.5 10C1.503 9.843 1.543 9.69 1.618 9.552C1.78 9.213 2.124 8.997 2.5 9H5V6.5C5.003 6.343 5.043 6.19 5.118 6.052C5.362 5.561 5.958 5.361 6.449 5.605C6.789 5.774 7.002 6.121 7 6.5V9H9.5C10.052 9 10.5 9.448 10.5 10C10.5 10.552 10.052 11 9.5 11ZM13 0H5C4.448 0 4 0.448 4 1C4 1.552 4.448 2 5 2H13C13.552 2.001 13.999 2.448 14 3V11C14 11.552 14.448 12 15 12C15.552 12 16 11.552 16 11V3C15.999 1.343 14.657 0.001 13 0Z" fill="#767676"/>
</svg>
