<svg width="16" height="16" viewBox="0 0 16 16" fill="none" xmlns="http://www.w3.org/2000/svg">
<path d="M13 0H5C4.448 0 4 0.448 4 1C4 1.552 4.448 2 5 2H13C13.552 2 14 2.448 14 3V11C14 11.552 14.448 12 15 12C15.552 12 16 11.552 16 11V3C16 1.343 14.657 0 13 0ZM10.5 4H1.5C0.672 4 0 4.672 0 5.5V15C0 15.552 0.448 16 1 16H10.5C11.328 16 12 15.328 12 14.5V5.5C12 4.672 11.328 4 10.5 4ZM10.357 8.043L5.179 13.222C4.774 13.627 4.119 13.627 3.714 13.222L1.643 11.15C1.227 10.758 1.207 10.102 1.6 9.686C1.992 9.269 2.648 9.25 3.064 9.642C3.079 9.656 3.093 9.67 3.107 9.685L4.446 11.024L8.893 6.578C9.292 6.168 9.948 6.16 10.358 6.559C10.768 6.958 10.776 7.614 10.377 8.024C10.371 8.03 10.364 8.037 10.357 8.043ZM1.5 16H10.5C11.328 16 12 15.328 12 14.5V5.5C12 4.672 11.328 4 10.5 4H1.5C0.672 4 0 4.672 0 5.5V14.5C0 15.328 0.672 16 1.5 16ZM1.643 9.686C2.047 9.281 2.702 9.281 3.107 9.685L3.108 9.686L4.447 11.025L8.893 6.578C9.303 6.179 9.959 6.187 10.358 6.597C10.75 6.999 10.75 7.641 10.358 8.043L5.179 13.222C4.775 13.627 4.12 13.627 3.715 13.223L3.714 13.222L1.643 11.15C1.239 10.746 1.239 10.091 1.643 9.686ZM13 0H5C4.448 0 4 0.448 4 1C4 1.552 4.448 2 5 2H13C13.552 2 14 2.448 14 3V11C14 11.552 14.448 12 15 12C15.552 12 16 11.552 16 11V3C16 1.343 14.657 0 13 0Z" fill="#0078D4"/>
</svg>
